# Blender 3.6.1
# www.blender.org
mtllib droneNoGun.mtl
o Cube.001
v -4.598864 1.000000 6.828427
v -4.598864 -1.000000 6.828427
v -6.013077 1.000000 5.414214
v -6.013076 -1.000000 5.414214
v -0.356223 1.000000 2.585787
v -0.356223 -1.000000 2.585787
v -1.770437 1.000000 1.171573
v -1.770437 -1.000000 1.171573
vn -0.0000 0.5774 0.8165
vn 0.8165 0.5774 -0.0000
vn -0.0000 0.5774 -0.8165
vn -0.8165 0.5774 -0.0000
vn -0.8165 -0.5774 -0.0000
vn -0.0000 -0.5774 -0.8165
vn 0.8165 -0.5774 -0.0000
vn -0.0000 -0.5774 0.8165
vt 0.625000 0.500000
vt 0.875000 0.500000
vt 0.875000 0.750000
vt 0.625000 0.750000
vt 0.375000 0.750000
vt 0.625000 1.000000
vt 0.375000 1.000000
vt 0.375000 0.000000
vt 0.625000 0.000000
vt 0.625000 0.250000
vt 0.375000 0.250000
vt 0.125000 0.500000
vt 0.375000 0.500000
vt 0.125000 0.750000
s 1
usemtl Material.001
f 1/1/1 5/2/2 7/3/3 3/4/4
f 4/5/5 3/4/4 7/6/3 8/7/6
f 8/8/6 7/9/3 5/10/2 6/11/7
f 6/12/7 2/13/8 4/5/5 8/14/6
f 2/13/8 1/1/1 3/4/4 4/5/5
f 6/11/7 5/10/2 1/1/1 2/13/8
o Cube.002
v -2.000000 1.000000 -4.000000
v -2.000000 -1.000000 -4.000000
v 2.000000 1.000000 -4.000000
v 2.000000 -1.000000 -4.000000
v -2.000000 1.000000 4.000000
v -2.000000 -1.000000 4.000000
v 2.000000 1.000000 4.000000
v 2.000000 -1.000000 4.000000
vn -0.5774 0.5774 -0.5774
vn -0.5774 0.5774 0.5774
vn 0.5774 0.5774 0.5774
vn 0.5774 0.5774 -0.5774
vn 0.5774 -0.5774 -0.5774
vn 0.5774 -0.5774 0.5774
vn -0.5774 -0.5774 0.5774
vn -0.5774 -0.5774 -0.5774
vt 0.625000 0.500000
vt 0.875000 0.500000
vt 0.875000 0.750000
vt 0.625000 0.750000
vt 0.375000 0.750000
vt 0.625000 1.000000
vt 0.375000 1.000000
vt 0.375000 0.000000
vt 0.625000 0.000000
vt 0.625000 0.250000
vt 0.375000 0.250000
vt 0.125000 0.500000
vt 0.375000 0.500000
vt 0.125000 0.750000
s 1
usemtl Material.002
f 9/15/9 13/16/10 15/17/11 11/18/12
f 12/19/13 11/18/12 15/20/11 16/21/14
f 16/22/14 15/23/11 13/24/10 14/25/15
f 14/26/15 10/27/16 12/19/13 16/28/14
f 10/27/16 9/15/9 11/18/12 12/19/13
f 14/25/15 13/24/10 9/15/9 10/27/16
o Cube.003
v 0.356223 1.000000 2.585787
v 0.356223 -1.000000 2.585787
v 1.770437 1.000000 1.171573
v 1.770437 -1.000000 1.171573
v 4.598865 1.000000 6.828427
v 4.598865 -1.000000 6.828427
v 6.013077 1.000000 5.414213
v 6.013077 -1.000000 5.414213
vn -0.8165 0.5774 -0.0000
vn -0.0000 0.5774 0.8165
vn 0.8165 0.5774 -0.0000
vn -0.0000 0.5774 -0.8165
vn -0.0000 -0.5774 -0.8165
vn 0.8165 -0.5774 -0.0000
vn -0.0000 -0.5774 0.8165
vn -0.8165 -0.5774 -0.0000
vt 0.625000 0.500000
vt 0.875000 0.500000
vt 0.875000 0.750000
vt 0.625000 0.750000
vt 0.375000 0.750000
vt 0.625000 1.000000
vt 0.375000 1.000000
vt 0.375000 0.000000
vt 0.625000 0.000000
vt 0.625000 0.250000
vt 0.375000 0.250000
vt 0.125000 0.500000
vt 0.375000 0.500000
vt 0.125000 0.750000
s 1
usemtl Material.005
f 17/29/17 21/30/18 23/31/19 19/32/20
f 20/33/21 19/32/20 23/34/19 24/35/22
f 24/36/22 23/37/19 21/38/18 22/39/23
f 22/40/23 18/41/24 20/33/21 24/42/22
f 18/41/24 17/29/17 19/32/20 20/33/21
f 22/39/23 21/38/18 17/29/17 18/41/24
o Cube.004
v -6.031048 1.000000 -4.949684
v -6.031048 -1.000000 -4.949684
v -4.616835 1.000000 -6.363898
v -4.616834 -1.000000 -6.363898
v -1.788407 1.000000 -0.707044
v -1.788407 -1.000000 -0.707044
v -0.374193 1.000000 -2.121258
v -0.374193 -1.000000 -2.121258
vn -0.8165 0.5774 -0.0000
vn -0.0000 0.5774 0.8165
vn 0.8165 0.5774 -0.0000
vn -0.0000 0.5774 -0.8165
vn -0.0000 -0.5774 -0.8165
vn 0.8165 -0.5774 -0.0000
vn -0.0000 -0.5774 0.8165
vn -0.8165 -0.5774 -0.0000
vt 0.625000 0.500000
vt 0.875000 0.500000
vt 0.875000 0.750000
vt 0.625000 0.750000
vt 0.375000 0.750000
vt 0.625000 1.000000
vt 0.375000 1.000000
vt 0.375000 0.000000
vt 0.625000 0.000000
vt 0.625000 0.250000
vt 0.375000 0.250000
vt 0.125000 0.500000
vt 0.375000 0.500000
vt 0.125000 0.750000
s 1
usemtl Material.006
f 25/43/25 29/44/26 31/45/27 27/46/28
f 28/47/29 27/46/28 31/48/27 32/49/30
f 32/50/30 31/51/27 29/52/26 30/53/31
f 30/54/31 26/55/32 28/47/29 32/56/30
f 26/55/32 25/43/25 27/46/28 28/47/29
f 30/53/31 29/52/26 25/43/25 26/55/32
o Cube.005
v 1.770437 1.000000 -0.707044
v 1.770437 -1.000000 -0.707044
v 0.356223 1.000000 -2.121258
v 0.356223 -1.000000 -2.121258
v 6.013076 1.000000 -4.949685
v 6.013077 -1.000000 -4.949685
v 4.598864 1.000000 -6.363898
v 4.598864 -1.000000 -6.363898
vn -0.0000 0.5774 0.8165
vn 0.8165 0.5774 -0.0000
vn -0.0000 0.5774 -0.8165
vn -0.8165 0.5774 -0.0000
vn -0.8165 -0.5774 -0.0000
vn -0.0000 -0.5774 -0.8165
vn 0.8165 -0.5774 -0.0000
vn -0.0000 -0.5774 0.8165
vt 0.625000 0.500000
vt 0.875000 0.500000
vt 0.875000 0.750000
vt 0.625000 0.750000
vt 0.375000 0.750000
vt 0.625000 1.000000
vt 0.375000 1.000000
vt 0.375000 0.000000
vt 0.625000 0.000000
vt 0.625000 0.250000
vt 0.375000 0.250000
vt 0.125000 0.500000
vt 0.375000 0.500000
vt 0.125000 0.750000
s 1
usemtl Material.004
f 33/57/33 37/58/34 39/59/35 35/60/36
f 36/61/37 35/60/36 39/62/35 40/63/38
f 40/64/38 39/65/35 37/66/34 38/67/39
f 38/68/39 34/69/40 36/61/37 40/70/38
f 34/69/40 33/57/33 35/60/36 36/61/37
f 38/67/39 37/66/34 33/57/33 34/69/40
